<svg xmlns="http://www.w3.org/2000/svg" width="426" height="201" fill="none"><path fill="#fff" d="M226.168 130V37.84h18.56l33.408 39.808 33.28-39.808h18.688V130H313.08V62.416l-34.944 41.6-35.072-41.472V130h-16.896Zm129.374 27.52v-16.896h44.672c.427 0 .768-.171 1.024-.512.341-.256.512-.597.512-1.024V130h-40.96c-3.157 0-6.101-.811-8.832-2.432a19.128 19.128 0 0 1-6.4-6.4c-1.621-2.645-2.432-5.589-2.432-8.832v-56.32h16.768v55.68c0 .427.128.811.384 1.152a1.87 1.87 0 0 0 1.152.384h38.784c.427 0 .768-.128 1.024-.384.341-.341.512-.725.512-1.152v-55.68h16.768v83.84c0 3.243-.768 6.187-2.304 8.832a16.475 16.475 0 0 1-6.4 6.4c-2.645 1.621-5.589 2.432-8.832 2.432h-45.44Z"/><path fill="#CD2580" d="M3.712 186v-46.08h42.432v8.512h-33.92v10.24h27.264v8.576H12.224V186H3.712Zm54.698 0a8.612 8.612 0 0 1-4.48-1.216 9.564 9.564 0 0 1-3.2-3.2c-.768-1.323-1.152-2.795-1.152-4.416v-13.952H78.89v-5.184a.609.609 0 0 0-.256-.512.607.607 0 0 0-.512-.256H49.578v-8.384h28.864c1.621 0 3.093.405 4.416 1.216 1.365.811 2.432 1.877 3.2 3.2.81 1.323 1.216 2.795 1.216 4.416V186H58.41Zm.32-8.384h20.16v-6.848H57.962v6.08c0 .213.064.405.192.576.17.128.363.192.576.192ZM110.385 186l-20.416-37.12h9.664l14.656 26.944 14.592-26.944h9.664L118.065 186h-7.68Zm39.836 0c-1.621 0-3.093-.405-4.416-1.216a9.564 9.564 0 0 1-3.2-3.2c-.811-1.323-1.216-2.795-1.216-4.416v-19.456c0-1.621.405-3.093 1.216-4.416a9.564 9.564 0 0 1 3.2-3.2c1.323-.811 2.795-1.216 4.416-1.216h20.032c1.621 0 3.093.405 4.416 1.216 1.365.811 2.432 1.877 3.2 3.2.811 1.323 1.216 2.795 1.216 4.416v19.456c0 1.621-.405 3.093-1.216 4.416a9.007 9.007 0 0 1-3.136 3.2c-1.323.811-2.816 1.216-4.48 1.216h-20.032Zm.32-8.384h19.392a.692.692 0 0 0 .512-.192.796.796 0 0 0 .256-.576v-18.816a.608.608 0 0 0-.256-.512.608.608 0 0 0-.512-.256h-19.392a.796.796 0 0 0-.576.256.692.692 0 0 0-.192.512v18.816c0 .213.064.405.192.576a.937.937 0 0 0 .576.192Zm33.85 8.384v-28.288c0-1.621.405-3.093 1.216-4.416a9.555 9.555 0 0 1 3.2-3.2 8.495 8.495 0 0 1 4.416-1.216h20.608v8.384h-20.288a.792.792 0 0 0-.576.256.692.692 0 0 0-.192.512V186h-8.384Zm34.312 0v-37.12h8.384V186h-8.384Zm0-40.832v-8.448h8.384v8.448h-8.384ZM242.662 186c-1.622 0-3.094-.405-4.416-1.216a9.555 9.555 0 0 1-3.2-3.2c-.811-1.323-1.216-2.795-1.216-4.416v-39.68h8.384v11.392h14.464v8.384h-14.464v19.584c0 .213.064.405.192.576.17.128.362.192.576.192h13.696V186h-14.016Zm27.934 0c-1.621 0-3.093-.405-4.416-1.216a9.564 9.564 0 0 1-3.2-3.2c-.811-1.323-1.216-2.795-1.216-4.416v-19.456c0-1.621.405-3.093 1.216-4.416a9.564 9.564 0 0 1 3.2-3.2c1.323-.811 2.795-1.216 4.416-1.216h20.032c1.621 0 3.093.405 4.416 1.216 1.365.811 2.432 1.877 3.2 3.2.811 1.323 1.216 2.795 1.216 4.416v13.952h-29.312v5.184c0 .213.064.405.192.576a.937.937 0 0 0 .576.192h28.544V186h-28.864Zm-.448-21.888h20.928v-6.08a.608.608 0 0 0-.256-.512.608.608 0 0 0-.512-.256h-19.392a.796.796 0 0 0-.576.256.692.692 0 0 0-.192.512v6.08ZM314.279 186c-1.621 0-3.093-.405-4.416-1.216a9.564 9.564 0 0 1-3.2-3.2c-.811-1.323-1.216-2.795-1.216-4.416v-1.408h8.384v1.088c0 .213.064.405.192.576a.937.937 0 0 0 .576.192h19.392a.692.692 0 0 0 .512-.192.796.796 0 0 0 .256-.576v-4.416a.608.608 0 0 0-.256-.512.608.608 0 0 0-.512-.256h-19.712c-1.621 0-3.093-.405-4.416-1.216a9.564 9.564 0 0 1-3.2-3.2c-.811-1.323-1.216-2.795-1.216-4.416v-5.12c0-1.621.405-3.093 1.216-4.416a9.564 9.564 0 0 1 3.2-3.2c1.323-.811 2.795-1.216 4.416-1.216h20.032c1.664 0 3.157.405 4.48 1.216a9.564 9.564 0 0 1 3.2 3.2c.811 1.323 1.216 2.795 1.216 4.416v1.408h-8.448v-1.088a.608.608 0 0 0-.256-.512.608.608 0 0 0-.512-.256h-19.392a.796.796 0 0 0-.576.256.692.692 0 0 0-.192.512v4.416c0 .213.064.405.192.576a.937.937 0 0 0 .576.192h19.712c1.664 0 3.157.405 4.48 1.216a9.564 9.564 0 0 1 3.2 3.2c.811 1.323 1.216 2.795 1.216 4.416v5.12c0 1.621-.405 3.093-1.216 4.416a9.564 9.564 0 0 1-3.2 3.2c-1.323.811-2.816 1.216-4.48 1.216h-20.032Z"/></svg>