<svg width="32" height="32" viewBox="0 0 32 32" fill="none" xmlns="http://www.w3.org/2000/svg">
<path d="M4 8H6.66667H28" stroke="#FF1B1B" stroke-width="2" stroke-linecap="round" stroke-linejoin="round"/>
<path d="M25.3333 8V26.6667C25.3333 27.3739 25.0524 28.0522 24.5523 28.5523C24.0522 29.0524 23.3739 29.3333 22.6667 29.3333H9.33334C8.62609 29.3333 7.94782 29.0524 7.44772 28.5523C6.94762 28.0522 6.66667 27.3739 6.66667 26.6667V8M10.6667 8V5.33333C10.6667 4.62609 10.9476 3.94781 11.4477 3.44772C11.9478 2.94762 12.6261 2.66667 13.3333 2.66667H18.6667C19.3739 2.66667 20.0522 2.94762 20.5523 3.44772C21.0524 3.94781 21.3333 4.62609 21.3333 5.33333V8" stroke="#FF1B1B"  stroke-width="2" stroke-linecap="round" stroke-linejoin="round"/>
</svg>
